<?xml version="1.0" encoding="utf-8"?>
<svg width="350" height="85" xmlns="http://www.w3.org/2000/svg" preserveAspectRatio="xMidYMid meet" version="1.0" xmlns:bx="https://boxy-svg.com" viewBox="-12.807 27.35 343.706 91.077" style="">
  <defs>
    <bx:export>
      <bx:file format="svg" path="logo_2.svg"/>
      <bx:file format="svg" href="#svg_19" path="x.svg" normalization="{&quot;removeAnimations&quot;:true,&quot;removeBoxySVGMetadata&quot;:true,&quot;removeForeignMetadata&quot;:true}" width="80" height="80"/>
    </bx:export>
    <linearGradient id="color-0" bx:pinned="true" gradientUnits="userSpaceOnUse">
      <stop style="stop-color: rgb(0, 91, 196);"/>
    </linearGradient>
  </defs>
  <g class="iconlettersvg-g iconlettersvg layer" fill="#333" transform="translate(77.4999771118164,100.00000000000003)">
    <g id="X" transform="matrix(1.6375 0 0 1.6375 9.65138 -100)" x="-50" y="0">
      <svg class="image-svg-svg primary" filter="url(#colors5317643122)" height="50" id="svg_16" width="50" x="-50" y="0">
        <g id="svg_2">
          <svg id="svg_17" viewBox="0 0 100 100" xmlns="http://www.w3.org/2000/svg">
            <title>资源 9</title>
            <g fill="#333" id="svg_18"/>
          </svg>
        </g>
      </svg>
    </g>
    <g id="A" transform="matrix(1.6375 0 0 1.6375 -29.1283 -100)" x="154.28" y="0">
      <svg class="image-svg-svg primary" filter="url(#colors5317643122)" height="50" id="svg_24" width="55" x="25" y="0">
        <g id="svg_4">
          <svg id="svg_25" viewBox="0 0 100 100" xmlns="http://www.w3.org/2000/svg">
            <title>资源 15</title>
            <g fill="#333" id="svg_26"/>
          </svg>
        </g>
      </svg>
    </g>
    <g id="R1" transform="matrix(1.6375 0 0 1.6375 -97.9445 -100)" x="-47.28" y="-39.84">
      <svg class="image-svg-svg primary" filter="url(#colors5317643122)" height="50" id="svg_41" width="50" x="128" y="0">
        <g id="svg_66">
          <svg id="svg_67" viewBox="0 0 100 100" xmlns="http://www.w3.org/2000/svg">
            <title>R</title>
            <g fill="#333" id="svg_43"/>
          </svg>
        </g>
      </svg>
    </g>
    <g id="R2" transform="matrix(1.6375 0 0 1.6375 -196.77 -100)" x="223.71" y="120.74">
      <svg class="image-svg-svg primary" filter="url(#colors5317643122)" height="50" id="svg_41" width="50" x="238" y="0">
        <g id="svg_8">
          <svg id="svg_42" viewBox="0 0 100 100" xmlns="http://www.w3.org/2000/svg">
            <title>R</title>
            <g fill="#333" id="svg_43"/>
          </svg>
        </g>
      </svg>
    </g>
    <defs transform="translate(14.875 2.65625) translate(11.6875 61.625) translate(-51 88.1875) translate(142.5 0) translate(28.6875 22.3125) translate(142.5 0) translate(-47.2813 -39.8438) translate(0 50) scale(1.81267 1.81267) translate(0 -50) translate(-26.0838 -21.9807) scale(1.31875 1.82875) translate(26.0838 21.9807) translate(39.8329 -12.0195) scale(2.75 2.75) translate(-39.8329 12.0195)">
      <filter id="colors5317643122">
        <feColorMatrix class="icon-fecolormatrix" type="matrix" values="0 0 0 0 0.0117  0 0 0 0 0.1706  0 0 0 0 0.8961  0 0 0 1 0" in="SourceGraphic" result="color-matrix-0"/>
      </filter>
    </defs>
  </g>
  <path d="M 24.389 54.447 L 5.967 33.978 C 4.415 32.253 2.204 31.269 -0.116 31.268 C -4.638 31.268 -8.304 34.934 -8.304 39.455 C -8.303 41.479 -7.554 43.43 -6.2 44.933 L 12.222 65.402 C 13.774 67.126 15.985 68.111 18.305 68.112 C 22.827 68.112 26.493 64.446 26.493 59.924 C 26.492 57.901 25.743 55.95 24.389 54.447 L 24.389 54.447 Z M 36.785 54.447 L 55.206 33.978 C 56.759 32.253 58.97 31.269 61.29 31.268 C 65.812 31.268 69.477 34.934 69.477 39.455 C 69.477 41.479 68.727 43.43 67.373 44.933 L 48.951 65.402 C 47.399 67.126 45.188 68.111 42.868 68.112 C 38.346 68.112 34.68 64.446 34.68 59.924 C 34.681 57.901 35.431 55.95 36.785 54.447 L 36.785 54.447 Z M 24.389 89.964 L 5.967 110.433 C 4.415 112.157 2.204 113.142 -0.116 113.143 C -4.638 113.143 -8.304 109.477 -8.304 104.955 C -8.303 102.932 -7.554 100.981 -6.2 99.478 L 12.222 79.009 C 13.774 77.285 15.985 76.3 18.305 76.299 C 22.827 76.299 26.493 79.965 26.493 84.487 C 26.492 86.51 25.743 88.461 24.389 89.964 Z M 36.785 89.964 L 55.206 110.433 C 56.759 112.157 58.97 113.142 61.29 113.143 C 65.812 113.143 69.477 109.477 69.477 104.955 C 69.477 102.932 68.727 100.981 67.373 99.478 L 48.951 79.009 C 47.399 77.285 45.188 76.3 42.868 76.299 C 38.346 76.299 34.68 79.965 34.68 84.487 C 34.681 86.51 35.431 88.461 36.785 89.964 L 36.785 89.964 Z" id="svg_19" style="fill: url(&quot;#color-0&quot;);"/>
  <path d="M 122.807 31.268 C 118.285 31.268 114.619 34.934 114.619 39.455 C 114.618 40.795 114.947 42.114 115.577 43.295 L 150.374 108.795 C 151.795 111.47 154.575 113.142 157.604 113.143 C 162.126 113.143 165.791 109.477 165.791 104.955 C 165.793 103.616 165.464 102.297 164.833 101.115 L 130.037 35.615 C 128.616 32.941 125.835 31.269 122.807 31.268 L 122.807 31.268 Z M 123.265 84.487 L 122.348 84.487 C 119.32 84.487 116.539 86.16 115.119 88.834 C 112.223 94.287 116.175 100.86 122.348 100.862 L 123.265 100.862 C 129.439 100.86 133.391 94.287 130.495 88.834 C 129.075 86.16 126.294 84.487 123.265 84.487 Z M 101.667 61.791 L 80.781 101.091 C 80.146 102.28 79.817 103.608 79.823 104.955 C 79.823 109.477 83.488 113.143 88.01 113.143 C 91.039 113.142 93.819 111.47 95.24 108.795 L 116.134 69.495 C 117.409 67.094 117.409 64.217 116.134 61.815 C 113.191 56.242 105.318 55.944 101.963 61.28 C 101.858 61.447 101.759 61.617 101.667 61.791 L 101.667 61.791 Z" id="svg_27" style="fill: url(&quot;#color-0&quot;);"/>
  <g>
    <path d="M 183.763 113.143 C 179.241 113.143 175.575 109.477 175.575 104.955 L 175.575 64.018 C 175.575 59.496 179.241 55.83 183.763 55.83 C 188.284 55.83 191.95 59.496 191.95 64.018 L 191.95 104.955 C 191.95 109.477 188.284 113.143 183.763 113.143 Z" id="svg_68" style="fill: url(&quot;#color-0&quot;);"/>
    <path d="M 245.169 55.83 C 245.169 42.265 234.172 31.268 220.606 31.268 L 183.763 31.268 C 179.241 31.268 175.575 34.934 175.575 39.455 C 175.575 43.977 179.241 47.643 183.763 47.643 L 220.606 47.643 C 225.128 47.643 228.794 51.309 228.794 55.83 C 228.794 60.352 225.128 64.018 220.606 64.018 L 212.419 64.018 C 206.116 64.018 202.177 70.841 205.328 76.299 C 205.492 76.583 205.673 76.856 205.869 77.118 L 230.431 109.868 C 231.978 111.93 234.404 113.143 236.981 113.143 C 241.503 113.143 245.169 109.477 245.169 104.955 C 245.169 103.184 244.594 101.46 243.531 100.043 L 227.975 79.271 C 238.211 76.052 245.173 66.561 245.169 55.83 L 245.169 55.83 Z" id="svg_69" style="fill: url(&quot;#color-0&quot;);"/>
  </g>
  <g>
    <path d="M 265.062 113.143 C 260.54 113.143 256.875 109.477 256.875 104.955 L 256.875 64.018 C 256.875 59.496 260.54 55.83 265.062 55.83 C 269.584 55.83 273.25 59.496 273.25 64.018 L 273.25 104.955 C 273.25 109.477 269.584 113.143 265.062 113.143 Z" id="svg_44" style="fill: url(&quot;#color-0&quot;);"/>
    <path d="M 326.468 55.83 C 326.468 42.265 315.471 31.268 301.906 31.268 L 265.062 31.268 C 260.54 31.268 256.875 34.934 256.875 39.455 C 256.875 43.977 260.54 47.643 265.062 47.643 L 301.906 47.643 C 306.428 47.643 310.093 51.309 310.093 55.83 C 310.093 60.352 306.428 64.018 301.906 64.018 L 293.718 64.018 C 287.416 64.018 283.476 70.841 286.628 76.299 C 286.791 76.583 286.972 76.856 287.168 77.118 L 311.731 109.868 C 313.277 111.93 315.704 113.143 318.281 113.143 C 322.803 113.143 326.468 109.477 326.468 104.955 C 326.468 103.184 325.894 101.46 324.831 100.043 L 309.275 79.271 C 319.511 76.052 326.473 66.561 326.468 55.83 L 326.468 55.83 Z" id="svg_45" style="fill: url(&quot;#color-0&quot;);"/>
  </g>
</svg>