<?xml version="1.0" standalone="no"?><!DOCTYPE svg PUBLIC "-//W3C//DTD SVG 1.1//EN" "http://www.w3.org/Graphics/SVG/1.1/DTD/svg11.dtd"><svg class="icon" width="200px" height="181.08px" viewBox="0 0 1131 1024" version="1.1" xmlns="http://www.w3.org/2000/svg"><path d="M977.260584 215.29208v498.868465c0 144.897095-117.792878 263.282709-264.522067 263.282709H137.514833a33.947627 33.947627 0 0 1-34.648134-34.486478V215.29208c529.313559 10.83091 395.193489 12.178038 874.393885 0zM366.418834 592.919019H226.317515a10.777025 10.777025 0 0 0-10.777025 10.777025v140.101318c0 5.927363 4.849661 10.777025 10.777025 10.777025h140.101319a10.777025 10.777025 0 0 0 10.777024-10.777025v-140.101318a10.777025 10.777025 0 0 0-10.777024-10.777025z" fill="#3396FB" /><path d="M23.601684 187.541242c-25.379893 76.516874-37.288505 158.09895 0.646621 205.841168C102.489503 492.962117 198.297251 520.174104 312.641481 458.637294c21.015198-11.854727 47.849989-11.854727 67.733599 1.131587 58.357588 36.749654 182.131714 94.783931 277.831693 14.225673a68.757416 68.757416 0 0 1 77.055725-9.483782c81.743731 45.047962 256.870379 109.009603 340.931171-124.366863a49.035462 49.035462 0 0 0 3.502533-26.026514 701.045445 701.045445 0 0 0-13.0402-104.106057c-509.537719-2.694256-359.683193 37.719586-1043.054318-22.416211z" fill="#65AFE7" /><path d="M150.339492 0.182671C124.366863-1.056687 107.770245 3.631318 96.131059 26.101415c-18.213171 33.408776-50.220934 96.66991-69.942889 153.89591-27.158102 78.672279 1040.898913 37.072964 1039.71344 27.589182-3.825844-17.728205-19.937495-122.426999-99.148625-198.18948-11.639186-10.669254-22.470096-9.214356-38.797289-9.214356H150.339492z" fill="#BBE2FF" /><path d="M652.009983 598.307531m42.030396 0l0 0q42.030396 0 42.030396 42.030396l0 120.702675q0 42.030396-42.030396 42.030395l0 0q-42.030396 0-42.030396-42.030395l0-120.702675q0-42.030396 42.030396-42.030396Z" fill="#FFB541" /></svg>