<?xml version="1.0" standalone="no"?><!DOCTYPE svg PUBLIC "-//W3C//DTD SVG 1.1//EN" "http://www.w3.org/Graphics/SVG/1.1/DTD/svg11.dtd"><svg class="icon" width="200px" height="200.00px" viewBox="0 0 1024 1024" version="1.1" xmlns="http://www.w3.org/2000/svg"><path d="M844.08 490.6c-57.05 0-103.3-46.25-103.3-103.3 0-10.67 1.62 7.03 4.63-2.66h-18.97c3.21 9.98 4.95-6.39 4.95 4.66 0 57.05-46.25 102.3-103.3 102.3s-103.3-46.25-103.3-103.3c0-11.04 1.74 6.32 4.95-3.66H514.4c1.98 8.22 3.03-11.19 3.03-2.36 0 60.37-48.94 109.32-109.32 109.32s-109.32-47.94-109.32-108.32c0-8.83 1.05 9.58 3.03 1.36h-12.43c1.98 8.22 3.03-11.19 3.03-2.36 0 60.37-48.94 109.32-109.32 109.32-15.15 0-29.58-3.08-42.7-8.65v332.86c0 49.57 40.56 90.12 90.12 90.12h176.15V758.55c0-57.27 46.86-104.13 104.13-104.13 57.27 0 104.13 46.86 104.13 104.13v147.39h182.93c49.57 0 90.12-40.56 90.12-90.12v-335c-13.32 6.27-28.2 9.78-43.9 9.78z" fill="#2C9EF4" /><path d="M947.06 380.2V238.14c0-60.03-49.12-109.15-109.15-109.15H182.92c-60.03 0-109.15 49.12-109.15 109.15v146.65h0.02c0.81 59.68 49.43 107.81 109.3 107.81s108.49-48.13 109.3-107.81h6.4c0.81 59.68 49.43 107.81 109.3 107.81s108.49-48.13 109.3-107.81h7.49c-0.06 1.5-0.1 3-0.1 4.51 0 57.05 46.25 103.3 103.3 103.3s103.3-46.25 103.3-103.3c0-1.51-0.04-3.01-0.1-4.51h9.56c-0.04 1.17-0.07 2.34-0.07 3.51 0 57.05 46.25 103.3 103.3 103.3s103.3-46.25 103.3-103.3c0.01-2.72-0.1-5.42-0.31-8.1z" fill="#95CEF9" /></svg>