<?xml version="1.0" standalone="no"?><!DOCTYPE svg PUBLIC "-//W3C//DTD SVG 1.1//EN" "http://www.w3.org/Graphics/SVG/1.1/DTD/svg11.dtd"><svg class="icon" width="200px" height="141.44px" viewBox="0 0 1448 1024" version="1.1" xmlns="http://www.w3.org/2000/svg"><path d="M410.94171 431.411389H1133.572988c33.198723-2.064169 64.84932 66.053418 90.307408 44.723669v425.046867c0 31.994625-12.729044 62.613136-35.262892 85.146985a120.427079 120.427079 0 0 1-85.146985 35.262892H441.044179c-31.994625 0-62.613136-12.729044-85.146984-35.262892-22.533848-22.533848-35.262893-53.324374-35.262893-85.146985V476.135058c24.770032 20.813707 90.307408-44.723669 90.307408-44.723669z m-2.408197 80.674618" fill="#DAE9FF" /><path d="M603.253486 498.324878c-43.347556 53.324374-110.089031 81.706703-178.550647 76.202251-135.031077-11.008903-216.909793-156.360826-162.38132-281.071056l1.032084-2.408198 76.718294-150.340333c25.458088-49.884092 76.718293-81.19066 132.622879-81.19066h598.609104c55.904586 0 107.164791 31.306568 132.62288 81.19066l76.718293 150.340333 1.204099 2.408198c54.528473 124.882244-27.350244 270.234168-162.381321 281.071056-70.525785 5.84848-139.33143-24.598018-182.334957-80.846632-39.391231 51.432219-100.456241 81.534688-165.133546 81.534689-63.645221 0-122.302033-28.726356-161.52125-76.890308l-3.78431-4.644381-3.440282 4.644381z m524.815051-318.742147" fill="#0646DE" /><path d="M681.863934 763.398623h180.614816c15.997312 0 31.306568 6.364522 42.6595 17.717453 11.352931 11.352931 17.717453 26.662187 17.717453 42.659499v197.300185H621.658995V823.603561c0-15.997312 6.364522-31.306568 17.717454-42.659499 11.180917-11.180917 26.490173-17.545439 42.487485-17.545439z m-78.610448-318.914161c-43.347556 53.324374-110.089031 81.706703-178.550647 76.202251-135.031077-11.008903-216.909793-156.360826-162.38132-281.071057l1.032084-2.408198 76.718294-150.340332c25.458088-49.884092 76.718293-81.19066 132.622879-81.19066h598.609104c55.904586 0 107.164791 31.306568 132.62288 81.19066l76.718293 150.340332 1.204099 2.408198c54.528473 124.882244-27.350244 270.234168-162.381321 281.071057-70.525785 5.84848-139.33143-24.598018-182.334957-80.846632-39.391231 51.432219-100.456241 81.534688-165.133546 81.534688-63.645221 0-122.302033-28.726356-161.52125-76.890307l-3.78431-4.644381-3.440282 4.644381zM1128.068537 125.742315" fill="#3889FF" /></svg>