<svg id="图层_1" data-name="图层 1" xmlns="http://www.w3.org/2000/svg" viewBox="0 0 1136.03963 509.98478">
	<defs>
		<style>
			.cls-1,
			.cls-4 {
				fill: #5c73ff;
			}

			.cls-2 {
				fill: none;
			}

			.cls-3,
			.cls-5 {
				fill: #65e4f7;
			}

			.cls-4 {
				font-size: 211.36992px;
			}

			.cls-4,
			.cls-5 {
				font-family: FZCHSJW--GB1-0, FZCuHeiSongS-B-GB;
			}

			.cls-5 {
				font-size: 62.11006px;
			}

			.zunhuyun-icon1 {
				fill-opacity: 0;
				stroke-width: 2px;
				stroke-dasharray: var(--s-dd);
				stroke-dashoffset: var(--s-dd);
				animation: logo-animation 3.5s ease-in-out forwards;
				animation-delay: var(--a-d);
				--s-dd: 6600;
				--s-ddo: -6600;
			}

			.zunhuyun-icon1.cls-1 {
				fill: url(#jianbian_1);
				stroke: url(#jianbian_1);
			}

			.zunhuyun-icon1.cls-2 {
				fill: url(#jianbian_6);
				stroke: url(#jianbian_6);
			}

			.zunhuyun-icon1.cls-3 {
				fill: url(#jianbian_3);
				stroke: url(#jianbian_3);
			}

			.zunhuyun-icon1.cls-4 {
				fill: url(#jianbian_1);
				stroke: url(#jianbian_1);
			}

			.zunhuyun-icon2 {
				fill: url(#jianbian_1);
				stroke: url(#jianbian_1);
				fill-opacity: 0;
				stroke-width: 2px;
				stroke-dasharray: var(--s-dd);
				stroke-dashoffset: var(--s-dd);
				animation: logo-animation 2.5s ease-in-out forwards;
				animation-delay: var(--a-d);
				--s-dd: 6600;
				--s-ddo: -6600;
			}

			.zunhuyun-icon2.cls-5 {
				fill: url(#jianbian_3);
				stroke: url(#jianbian_3);
			}

			.zunhuyun-icon.p-2 {
				--a-d: .6s;
				--s-dd: 6600;
				--s-ddo: -6600;
			}


			@keyframes logo-animation {
				60% {
					fill-opacity: 0;
					stroke-dashoffset: 0;
				}

				to {
					fill-opacity: 1;
					stroke-dashoffset: 0;
				}
			}
		</style>
		<linearGradient id="jianbian_1" data-name="jianbian_1" x1="467.381399292117749" y1="510.769312808132781"
			x2="535.88129981381644" y2="510.769312808132781"
			gradientTransform="translate(497.490721257233531 -186.676145205994345) rotate(38.926474899872588)"
			gradientUnits="userSpaceOnUse">
			<stop offset="0" stop-color="#5c73ff" />
			<stop offset=".999999914755368" stop-color="#2e8cff" />
		</linearGradient>

		<linearGradient id="jianbian_2" data-name="jianbian_2" x1="-39.731445623735453" y1="618.366076611827339"
			x2="1356.636239395951634" y2="618.366076611827339"
			gradientTransform="translate(421.557660093610707 -183.148032978226865) rotate(35.146556674844042)"
			gradientUnits="userSpaceOnUse">
			<stop offset=".000001246702738" stop-color="#4a9ce5" stop-opacity="0" />
			<stop offset="1" stop-color="#3ba7e7" />
		</linearGradient>
		<linearGradient id="jianbian_3" data-name="jianbian_3" x1="267.047157777753455" y1="677.316179169475618"
			x2="1229.465473898999335" y2="677.316179169475618"
			gradientTransform="translate(497.490721257233531 -186.676145205994345) rotate(38.926474899872588)"
			gradientUnits="userSpaceOnUse">
			<stop offset=".000000831135158" stop-color="#65e4f7" />
			<stop offset="1" stop-color="#48c8eb" />
		</linearGradient>
		<linearGradient id="jianbian_4" data-name="jianbian_4" x1="514.284421155858581" y1="720.550042931433381"
			x2="1152.135179720171436" y2="720.550042931433381"
			gradientTransform="translate(497.490721257233531 -186.676145205994345) rotate(38.926474899872588)"
			gradientUnits="userSpaceOnUse">
			<stop offset=".000000831135158" stop-color="#91eaee" />
			<stop offset="1" stop-color="#bbeef1" />
		</linearGradient>
		<linearGradient id="jianbian_5" data-name="jianbian_5" x1="514.284421155858581" y1="720.550042931433381"
			x2="1152.135179720171436" y2="720.550042931433381"
			gradientTransform="translate(497.490721257233531 -186.676145205994345) rotate(38.926474899872588)"
			gradientUnits="userSpaceOnUse">
			<stop offset=".000000831135158" stop-color="#FFFFFF" />
			<stop offset="1" stop-color="#FFFFFF" />
		</linearGradient>
		<linearGradient id="jianbian_6" data-name="jianbian_6" x1="-39.731445623735453" y1="618.366076611827339"
			x2="1356.636239395951634" y2="618.366076611827339"
			gradientTransform="translate(421.557660093610707 -183.148032978226865) rotate(35.146556674844042)"
			gradientUnits="userSpaceOnUse">
			<stop offset=".000001246702738" stop-color="#4a9ce5" stop-opacity="0" />
			<stop offset="1" stop-color="transparent" />
		</linearGradient>
	</defs>
	<g>
		<path class="zunhuyun-icon1 cls-1"
			d="M699.50458,470.7489c-14.49341-31.0296-34.694-55.09027-61.26856-70.89874-4.30658-2.56189-3.32531-4.40625-2.18005-8.18494,13.44086-44.345,12.28625-88.03821-4.1817-131.06213-1.86182-4.864-3.45655-5.9115-7.6778-2.96021-21.85089,15.27716-39.442,35.74506-53.40326,60.971-3.17395,5.7348-4.36139,14.35016-9.27581,16.942-4.88245,2.57483-11.40412.51153-17.19831.76532-27.94806,1.22412-51.841,13.57007-71.37256,37.79583-11.73584,14.55628-19.095,32.13581-24.73938,50.98114-8.63446,28.82862-25.47552,47.37635-49.66681,56.514-3.8493,1.454-7.77722,2.61286-11.61,4.1236-6.45618,2.54486-7.53888,6.335-3.8216,13.23315a31.20456,31.20456,0,0,0,3.33222,4.89081,75.84766,75.84766,0,0,0,42.39075,26.471c42.88079,10.11395,83.85083,2.392,122.81372-20.92334,13.33148-7.97748,26.14868-17.19519,39.47461-25.18708,25.45208-15.26416,52.35931-21.27349,80.749-17.1369,9.7821,1.42542,19.0744,5.04584,28.69977,8.62445A7.30522,7.30522,0,0,0,699.50458,470.7489ZM555.53534,427.1394c-9.84985,18.46808-23.75208,29.0755-42.15241,30.0788-9.25512.50464-18.54516.08807-28.58276.08807,4.99164-12.56835,11.48206-22.45855,20.97943-29.1607,10.803-7.6236,22.44007-11.90241,35.0791-11.78131,3.34058.03192,6.6872-.22205,10.02137-.05939,2.74212.13373,6.888-1.64343,7.90185.74976C560.15607,420.29822,557.20312,424.01239,555.53534,427.1394Z"
			transform="translate(-380.98186 -255.99997)" />
		<path class="zunhuyun-icon1 cls-2"
			d="M550.88007,416.30487c-3.33417-.16266-6.68079.09131-10.02137.05939-12.639-.1211-24.27606,4.15771-35.0791,11.78131-9.49737,6.70215-15.98779,16.59235-20.97943,29.1607,10.0376,0,19.32764.41657,28.58276-.08807,18.40033-1.0033,32.30256-11.61072,42.15241-30.0788,1.66778-3.127,4.62073-6.84118,3.24658-10.08477C557.76807,414.66144,553.62219,416.4386,550.88007,416.30487Z"
			transform="translate(-380.98186 -255.99997)" />
		<path class="zunhuyun-icon1 cls-3"
			d="M543.55856,765.98475c-15.33911-.4692-30.46668-2.35852-45.01985-8.80482-3.90457-1.72949-5.05087-3.39652-2.79415-8.41131,9.43158-20.95848,23.16251-36.60635,40.64339-47.23547,16.2684-9.892,33.30293-17.99377,49.42994-28.18659,31.293-19.77822,57.11295-46.69058,72.87828-85.71655,10.08769-24.97133,13.48607-51.36195,11.12262-78.84014-.43408-5.0473-.00322-6.13279,4.73869-5.63066,8.44477.89428,12.8447,5.767,15.97886,14.94187,14.63958,42.85411,15.55077,86.10609,1.38012,128.93528C666.45487,723.99132,608.78507,764.57321,543.55856,765.98475Z"
			transform="translate(-380.98186 -255.99997)" />
		<path class="zunhuyun-icon1 cls-3"
			d="M440.58713,715.94146A75.8483,75.8483,0,0,1,422.141,666.8919c-.66694-34.74558,13.77837-59.62675,37.37525-77.79993,15.19856-11.70513,32.29409-17.18746,49.70022-21.80132,20.4692-5.42578,40.42345-12.67526,58.34627-26.361,6.6964-5.11332,13.13508-10.5641,18.43648-17.76172.98179-1.333,1.94535-3.42671,3.83143-2.17353,1.73954,1.15573,1.2073,3.40012.98295,5.18422a95.5507,95.5507,0,0,1-17.75783,44.44808c-15.512,21.57976-36.01266,33.77948-57.71979,43.78012-21.02592,9.6867-40.51186,22.51119-55.573,43.28871-11.27808,15.5587-18.28811,33.364-18.76206,54.36838C440.98362,712.83023,440.84288,713.59254,440.58713,715.94146Z"
			transform="translate(-380.98186 -255.99997)" />
		<path class="zunhuyun-icon2 cls-5"
			d="M472.84811,340.70841c-4.27079-29.007-.84272-54.70468,9.71815-79.08367.9594-2.21467,1.98335-4.03983,4.39736-2.33143,17.81071,12.60475,32.79033,28.61182,43.4197,51.90409C507.61676,311.50731,489.19013,322.352,472.84811,340.70841Z"
			transform="translate(-380.98186 -255.99997)" />
	</g>
	<text class="zunhuyun-icon1 cls-4" transform="translate(396.72469 302.08271) scale(1.16591 1)">尊狐云</text>
	<text class="zunhuyun-icon2 cls-5" transform="translate(411.08943 397.32783) scale(1.3812 1)">ZUNHUYUN.COM</text>
</svg>