<?xml version="1.0" encoding="utf-8"?>
<svg xmlns="http://www.w3.org/2000/svg" viewBox="-8.304 31.268 77.781 81.875" width="80px" height="80px" xmlns:bx="https://boxy-svg.com" preserveAspectRatio="none"><defs><linearGradient id="color-0" gradientUnits="userSpaceOnUse"><stop style="stop-color: rgb(0, 91, 196);"/></linearGradient></defs><path d="M 24.389 54.447 L 5.967 33.978 C 4.415 32.253 2.204 31.269 -0.116 31.268 C -4.638 31.268 -8.304 34.934 -8.304 39.455 C -8.303 41.479 -7.554 43.43 -6.2 44.933 L 12.222 65.402 C 13.774 67.126 15.985 68.111 18.305 68.112 C 22.827 68.112 26.493 64.446 26.493 59.924 C 26.492 57.901 25.743 55.95 24.389 54.447 L 24.389 54.447 Z M 36.785 54.447 L 55.206 33.978 C 56.759 32.253 58.97 31.269 61.29 31.268 C 65.812 31.268 69.477 34.934 69.477 39.455 C 69.477 41.479 68.727 43.43 67.373 44.933 L 48.951 65.402 C 47.399 67.126 45.188 68.111 42.868 68.112 C 38.346 68.112 34.68 64.446 34.68 59.924 C 34.681 57.901 35.431 55.95 36.785 54.447 L 36.785 54.447 Z M 24.389 89.964 L 5.967 110.433 C 4.415 112.157 2.204 113.142 -0.116 113.143 C -4.638 113.143 -8.304 109.477 -8.304 104.955 C -8.303 102.932 -7.554 100.981 -6.2 99.478 L 12.222 79.009 C 13.774 77.285 15.985 76.3 18.305 76.299 C 22.827 76.299 26.493 79.965 26.493 84.487 C 26.492 86.51 25.743 88.461 24.389 89.964 Z M 36.785 89.964 L 55.206 110.433 C 56.759 112.157 58.97 113.142 61.29 113.143 C 65.812 113.143 69.477 109.477 69.477 104.955 C 69.477 102.932 68.727 100.981 67.373 99.478 L 48.951 79.009 C 47.399 77.285 45.188 76.3 42.868 76.299 C 38.346 76.299 34.68 79.965 34.68 84.487 C 34.681 86.51 35.431 88.461 36.785 89.964 L 36.785 89.964 Z" id="svg_19" style="fill: url(&quot;#color-0&quot;);" transform="matrix(1, 0, 0, 1, -1.4210854715202004e-14, 1.7763568394002505e-15)"/></svg>